# xmcd CD database file
#
# Track frame offsets:
#	151
#	14955
#	27932
#	40797
#	54188
#	69414
#	84503
#	96742
#	110970
#	123728
#	137716
#	147318
#	159228
#	171437
#
# Disc length: 2503 seconds
#
# Revision: 0
# Processed by: cddbd v1.5.2PL0 Copyright (c) Steve Scherf et al.
# Submitted via: CDex 1.51
#
DISCID=ce09c50e
DTITLE=Various Artist - Old Time Barn Dance
DYEAR=2008
DGENRE=Country
TTITLE0=Dixie Hoedown
TTITLE1=Ragtime Annie
TTITLE2=Flop Eared Mule
TTITLE3=Maiden's Prayer
TTITLE4=Soldier's Joy
TTITLE5=Tallahassee
TTITLE6=Farewell Blues
TTITLE7=Faded Love
TTITLE8=Red Wing
TTITLE9=Hunting For The Buffalo
TTITLE10=Sally Goodin
TTITLE11=St. Anne's Reel
TTITLE12=Whitehorse Breakdown
TTITLE13=Angelina Baker
EXTD=YEAR: 2008
EXTT0=
EXTT1=
EXTT2=
EXTT3=
EXTT4=
EXTT5=
EXTT6=
EXTT7=
EXTT8=
EXTT9=
EXTT10=
EXTT11=
EXTT12=
EXTT13=
PLAYORDER=
